<?xml version="1.0" encoding="UTF-8"?>
<svg id="1564" xmlns="http://www.w3.org/2000/svg" xmlns:xlink="http://www.w3.org/1999/xlink" width="5320px" height="3032px" viewBox="0 0 5320 3032" fill="none">
  <title>DM282-RomeoDesk-382-72567170.jpg</title>
<image x="0" y="0" width="5320" height="3032" xlink:href="DM282-RomeoDesk-382-72567170.jpg"/>
<g xml:space="preserve" stroke="#0000FF" stroke-dasharray="">
  <polygon class="ROI" fill="none" points="0,0 5319,0 5319,3031 0,3031 " />
</g>
<g xml:space="preserve" stroke="#00FF00" stroke-dasharray="">
  <polygon class="result" fill="none" points="3468,67 3388,64 3389,144 3469,146 " stroke-width="4" />
  <text x="1524" y="296" font-family="monospace" font-size="75">01007339053135611118112617231101...</text>
  <text x="1524" y="421" font-family="monospace" font-size="75">Data Matrix, 3.63 PPM</text>
</g>
<g xml:space="preserve" stroke="#00FF00" stroke-dasharray="">
  <polygon class="result" fill="none" points="3989,207 3907,204 3907,285 3990,288 " stroke-width="4" />
  <text x="2045" y="438" font-family="monospace" font-size="75">01007339059200801120041717250401...</text>
  <text x="2045" y="563" font-family="monospace" font-size="75">Data Matrix, 3.71 PPM</text>
</g>
<g xml:space="preserve" stroke="#00FF00" stroke-dasharray="">
  <polygon class="result" fill="none" points="3456,211 3375,211 3376,291 3457,292 " stroke-width="4" />
  <text x="3375" y="442" font-family="monospace" font-size="75">01007339053155721118112717231101...</text>
  <text x="3375" y="567" font-family="monospace" font-size="75">Data Matrix, 3.66 PPM</text>
</g>
<g xml:space="preserve" stroke="#00FF00" stroke-dasharray="">
  <polygon class="result" fill="none" points="2972,228 2892,227 2890,308 2972,310 " stroke-width="4" />
  <text x="2890" y="460" font-family="monospace" font-size="75">01007339056846781118043017230401...</text>
  <text x="2890" y="585" font-family="monospace" font-size="75">Data Matrix, 3.69 PPM</text>
</g>
<g xml:space="preserve" stroke="#00FF00" stroke-dasharray="">
  <polygon class="result" fill="none" points="3470,349 3392,348 3394,428 3472,430 " stroke-width="4" />
  <text x="1527" y="580" font-family="monospace" font-size="75">01007339056824071118111417231101...</text>
  <text x="1527" y="705" font-family="monospace" font-size="75">Data Matrix, 3.61 PPM</text>
</g>
<g xml:space="preserve" stroke="#00FF00" stroke-dasharray="">
  <polygon class="result" fill="none" points="3954,486 3870,482 3870,566 3955,569 " stroke-width="4" />
  <text x="2010" y="719" font-family="monospace" font-size="75">01007339053222351120082617250801...</text>
  <text x="2010" y="844" font-family="monospace" font-size="75">Data Matrix, 3.79 PPM</text>
</g>
<g xml:space="preserve" stroke="#00FF00" stroke-dasharray="">
  <polygon class="result" fill="none" points="2953,375 2872,375 2871,457 2953,458 " stroke-width="4" />
  <text x="2871" y="608" font-family="monospace" font-size="75">01007339056826741118040817230401...</text>
  <text x="2871" y="733" font-family="monospace" font-size="75">Data Matrix, 3.73 PPM</text>
</g>
<g xml:space="preserve" stroke="#00FF00" stroke-dasharray="">
  <polygon class="result" fill="none" points="3450,495 3370,495 3372,576 3452,577 " stroke-width="4" />
  <text x="3370" y="727" font-family="monospace" font-size="75">01007339053169991118111617231101...</text>
  <text x="3370" y="852" font-family="monospace" font-size="75">Data Matrix, 3.68 PPM</text>
</g>
<g xml:space="preserve" stroke="#00FF00" stroke-dasharray="">
  <polygon class="result" fill="none" points="2461,348 2380,348 2379,431 2461,430 " stroke-width="4" />
  <text x="2379" y="581" font-family="monospace" font-size="75">01007339053667411118042117230401...</text>
  <text x="2379" y="706" font-family="monospace" font-size="75">Data Matrix, 3.72 PPM</text>
</g>
<g xml:space="preserve" stroke="#00FF00" stroke-dasharray="">
  <polygon class="result" fill="none" points="3957,649 3879,647 3879,727 3958,729 " stroke-width="4" />
  <text x="2013" y="879" font-family="monospace" font-size="75">01007339056808161120021117250201...</text>
  <text x="2013" y="1004" font-family="monospace" font-size="75">Data Matrix, 3.58 PPM</text>
</g>
<g xml:space="preserve" stroke="#00FF00" stroke-dasharray="">
  <polygon class="result" fill="none" points="2956,523 2874,523 2875,606 2957,606 " stroke-width="4" />
  <text x="2874" y="756" font-family="monospace" font-size="75">01007339053142301118040817230401...</text>
  <text x="2874" y="881" font-family="monospace" font-size="75">Data Matrix, 3.75 PPM</text>
</g>
<g xml:space="preserve" stroke="#00FF00" stroke-dasharray="">
  <polygon class="result" fill="none" points="3452,645 3371,646 3372,728 3454,728 " stroke-width="4" />
  <text x="3371" y="878" font-family="monospace" font-size="75">01007339056807861118112517231101...</text>
  <text x="3371" y="1003" font-family="monospace" font-size="75">Data Matrix, 3.72 PPM</text>
</g>
<g xml:space="preserve" stroke="#00FF00" stroke-dasharray="">
  <polygon class="result" fill="none" points="3971,785 3888,784 3890,866 3973,867 " stroke-width="4" />
  <text x="2028" y="1017" font-family="monospace" font-size="75">01007339053167771120021317250201...</text>
  <text x="2028" y="1142" font-family="monospace" font-size="75">Data Matrix, 3.74 PPM</text>
</g>
<g xml:space="preserve" stroke="#00FF00" stroke-dasharray="">
  <polygon class="result" fill="none" points="2453,494 2371,494 2370,575 2452,574 " stroke-width="4" />
  <text x="2370" y="725" font-family="monospace" font-size="75">01007339059205611119030617240301...</text>
  <text x="2370" y="850" font-family="monospace" font-size="75">Data Matrix, 3.70 PPM</text>
</g>
<g xml:space="preserve" stroke="#00FF00" stroke-dasharray="">
  <polygon class="result" fill="none" points="2961,666 2880,667 2880,750 2962,750 " stroke-width="4" />
  <text x="2880" y="900" font-family="monospace" font-size="75">01007339056826741118043017230401...</text>
  <text x="2880" y="1025" font-family="monospace" font-size="75">Data Matrix, 3.75 PPM</text>
</g>
<g xml:space="preserve" stroke="#00FF00" stroke-dasharray="">
  <polygon class="result" fill="none" points="3475,792 3391,792 3392,879 3477,876 " stroke-width="4" />
  <text x="1532" y="1029" font-family="monospace" font-size="75">01007339056635501118110717231101...</text>
  <text x="1532" y="1154" font-family="monospace" font-size="75">Data Matrix, 3.82 PPM</text>
</g>
<g xml:space="preserve" stroke="#00FF00" stroke-dasharray="">
  <polygon class="result" fill="none" points="3986,925 3903,924 3906,1008 3989,1008 " stroke-width="4" />
  <text x="2044" y="1158" font-family="monospace" font-size="75">01007339056636351120072917250701...</text>
  <text x="2044" y="1283" font-family="monospace" font-size="75">Data Matrix, 3.79 PPM</text>
</g>
<g xml:space="preserve" stroke="#00FF00" stroke-dasharray="">
  <polygon class="result" fill="none" points="1953,493 1870,493 1868,576 1952,575 " stroke-width="4" />
  <text x="1868" y="726" font-family="monospace" font-size="75">01007339053670521119032017240301...</text>
  <text x="1868" y="851" font-family="monospace" font-size="75">Data Matrix, 3.75 PPM</text>
</g>
<g xml:space="preserve" stroke="#00FF00" stroke-dasharray="">
  <polygon class="result" fill="none" points="3487,930 3406,929 3407,1013 3488,1014 " stroke-width="4" />
  <text x="1543" y="1164" font-family="monospace" font-size="75">01007339056807861118112517231101...</text>
  <text x="1543" y="1289" font-family="monospace" font-size="75">Data Matrix, 3.74 PPM</text>
</g>
<g xml:space="preserve" stroke="#00FF00" stroke-dasharray="">
  <polygon class="result" fill="none" points="2450,645 2367,645 2366,727 2449,728 " stroke-width="4" />
  <text x="2366" y="878" font-family="monospace" font-size="75">01007339059205611119030617240301...</text>
  <text x="2366" y="1003" font-family="monospace" font-size="75">Data Matrix, 3.75 PPM</text>
</g>
<g xml:space="preserve" stroke="#00FF00" stroke-dasharray="">
  <polygon class="result" fill="none" points="3978,1104 3893,1100 3892,1185 3977,1189 " stroke-width="4" />
  <text x="2033" y="1339" font-family="monospace" font-size="75">01007339053168831120072417250701...</text>
  <text x="2033" y="1464" font-family="monospace" font-size="75">Data Matrix, 3.89 PPM</text>
</g>
<g xml:space="preserve" stroke="#00FF00" stroke-dasharray="">
  <polygon class="result" fill="none" points="2962,810 2880,811 2880,894 2962,895 " stroke-width="4" />
  <text x="2880" y="1045" font-family="monospace" font-size="75">01007339056826741118043017230401...</text>
  <text x="2880" y="1170" font-family="monospace" font-size="75">Data Matrix, 3.76 PPM</text>
</g>
<g xml:space="preserve" stroke="#00FF00" stroke-dasharray="">
  <polygon class="result" fill="none" points="3499,1084 3420,1082 3421,1163 3500,1165 " stroke-width="4" />
  <text x="1555" y="1315" font-family="monospace" font-size="75">01007339056808161118111417231101...</text>
  <text x="1555" y="1440" font-family="monospace" font-size="75">Data Matrix, 3.63 PPM</text>
</g>
<g xml:space="preserve" stroke="#00FF00" stroke-dasharray="">
  <polygon class="result" fill="none" points="2958,954 2876,956 2878,1040 2960,1039 " stroke-width="4" />
  <text x="2876" y="1190" font-family="monospace" font-size="75">01007339059212161118111417231101...</text>
  <text x="2876" y="1315" font-family="monospace" font-size="75">Data Matrix, 3.77 PPM</text>
</g>
<g xml:space="preserve" stroke="#00FF00" stroke-dasharray="">
  <polygon class="result" fill="none" points="2462,791 2377,791 2376,875 2462,875 " stroke-width="4" />
  <text x="2376" y="1025" font-family="monospace" font-size="75">01007339053247651119032017240301...</text>
  <text x="2376" y="1150" font-family="monospace" font-size="75">Data Matrix, 3.82 PPM</text>
</g>
<g xml:space="preserve" stroke="#00FF00" stroke-dasharray="">
  <polygon class="result" fill="none" points="4136,1472 4205,1473 4207,1402 4138,1401 " stroke-width="4" />
  <text x="2814" y="1623" font-family="monospace" font-size="75">172511301010062500056502</text>
  <text x="2814" y="1748" font-family="monospace" font-size="75">Data Matrix, 3.90 PPM</text>
</g>
<g xml:space="preserve" stroke="#00FF00" stroke-dasharray="">
  <polygon class="result" fill="none" points="1959,641 1876,642 1875,726 1959,725 " stroke-width="4" />
  <text x="1875" y="876" font-family="monospace" font-size="75">01007339053724451119032117240301...</text>
  <text x="1875" y="1001" font-family="monospace" font-size="75">Data Matrix, 3.80 PPM</text>
</g>
<g xml:space="preserve" stroke="#00FF00" stroke-dasharray="">
  <polygon class="result" fill="none" points="4136,1645 4205,1646 4207,1574 4138,1573 " stroke-width="4" />
  <text x="2814" y="1796" font-family="monospace" font-size="75">172511301010013500064008</text>
  <text x="2814" y="1921" font-family="monospace" font-size="75">Data Matrix, 3.89 PPM</text>
</g>
<g xml:space="preserve" stroke="#00FF00" stroke-dasharray="">
  <polygon class="result" fill="none" points="3470,1409 3530,1406 3528,1345 3469,1347 " stroke-width="4" />
  <text x="3469" y="1559" font-family="monospace" font-size="75">1725073110102299500005080012</text>
  <text x="3469" y="1684" font-family="monospace" font-size="75">Data Matrix, 3.37 PPM</text>
</g>
<g xml:space="preserve" stroke="#00FF00" stroke-dasharray="">
  <polygon class="result" fill="none" points="2975,1118 2893,1118 2892,1202 2975,1203 " stroke-width="4" />
  <text x="2892" y="1353" font-family="monospace" font-size="75">01007339053723461118040617230401...</text>
  <text x="2892" y="1478" font-family="monospace" font-size="75">Data Matrix, 3.80 PPM</text>
</g>
<g xml:space="preserve" stroke="#00FF00" stroke-dasharray="">
  <polygon class="result" fill="none" points="2458,938 2376,938 2373,1020 2457,1021 " stroke-width="4" />
  <text x="2373" y="1171" font-family="monospace" font-size="75">01007339059205611119030617240301...</text>
  <text x="2373" y="1296" font-family="monospace" font-size="75">Data Matrix, 3.74 PPM</text>
</g>
<g xml:space="preserve" stroke="#00FF00" stroke-dasharray="">
  <polygon class="result" fill="none" points="1958,788 1876,790 1875,874 1959,872 " stroke-width="4" />
  <text x="1875" y="1024" font-family="monospace" font-size="75">01007339053149021119030117240301...</text>
  <text x="1875" y="1149" font-family="monospace" font-size="75">Data Matrix, 3.79 PPM</text>
</g>
<g xml:space="preserve" stroke="#00FF00" stroke-dasharray="">
  <polygon class="result" fill="none" points="3510,1579 3581,1577 3580,1505 3509,1507 " stroke-width="4" />
  <text x="3509" y="1729" font-family="monospace" font-size="75">172511301010332500048003</text>
  <text x="3509" y="1854" font-family="monospace" font-size="75">Data Matrix, 3.97 PPM</text>
</g>
<g xml:space="preserve" stroke="#00FF00" stroke-dasharray="">
  <polygon class="result" fill="none" points="4139,1977 4209,1977 4210,1906 4140,1906 " stroke-width="4" />
  <text x="2817" y="2127" font-family="monospace" font-size="75">172511301010013500046001</text>
  <text x="2817" y="2252" font-family="monospace" font-size="75">Data Matrix, 3.91 PPM</text>
</g>
<g xml:space="preserve" stroke="#00FF00" stroke-dasharray="">
  <polygon class="result" fill="none" points="2882,1415 2953,1413 2951,1341 2880,1343 " stroke-width="4" />
  <text x="2880" y="1565" font-family="monospace" font-size="75">1725073110CX8244843</text>
  <text x="2880" y="1690" font-family="monospace" font-size="75">Data Matrix, 4.50 PPM</text>
</g>
<g xml:space="preserve" stroke="#00FF00" stroke-dasharray="">
  <polygon class="result" fill="none" points="2460,1117 2375,1118 2375,1203 2460,1203 " stroke-width="4" />
  <text x="2375" y="1353" font-family="monospace" font-size="75">01007339053149021119030117240301...</text>
  <text x="2375" y="1478" font-family="monospace" font-size="75">Data Matrix, 3.87 PPM</text>
</g>
<g xml:space="preserve" stroke="#00FF00" stroke-dasharray="">
  <polygon class="result" fill="none" points="3476,1753 3535,1753 3535,1692 3476,1692 " stroke-width="4" />
  <text x="3476" y="1903" font-family="monospace" font-size="75">1725073110102429500000080016</text>
  <text x="3476" y="2028" font-family="monospace" font-size="75">Data Matrix, 3.33 PPM</text>
</g>
<g xml:space="preserve" stroke="#00FF00" stroke-dasharray="">
  <polygon class="result" fill="none" points="4138,2143 4207,2145 4209,2074 4140,2073 " stroke-width="4" />
  <text x="4138" y="2295" font-family="monospace" font-size="75">1725083110R33140859</text>
  <text x="4138" y="2420" font-family="monospace" font-size="75">Data Matrix, 4.38 PPM</text>
</g>
<g xml:space="preserve" stroke="#00FF00" stroke-dasharray="">
  <polygon class="result" fill="none" points="1966,944 1881,944 1879,1028 1964,1028 " stroke-width="4" />
  <text x="1879" y="1178" font-family="monospace" font-size="75">01007339056634511120073017250701...</text>
  <text x="1879" y="1303" font-family="monospace" font-size="75">Data Matrix, 3.84 PPM</text>
</g>
<g xml:space="preserve" stroke="#00FF00" stroke-dasharray="">
  <polygon class="result" fill="none" points="3480,1898 3540,1895 3538,1833 3477,1836 " stroke-width="4" />
  <text x="3477" y="2048" font-family="monospace" font-size="75">1725073110102409500020030022</text>
  <text x="3477" y="2173" font-family="monospace" font-size="75">Data Matrix, 3.37 PPM</text>
</g>
<g xml:space="preserve" stroke="#00FF00" stroke-dasharray="">
  <polygon class="result" fill="none" points="2881,1589 2953,1587 2951,1515 2879,1517 " stroke-width="4" />
  <text x="2879" y="1739" font-family="monospace" font-size="75">1725073110CV8330653</text>
  <text x="2879" y="1864" font-family="monospace" font-size="75">Data Matrix, 4.49 PPM</text>
</g>
<g xml:space="preserve" stroke="#00FF00" stroke-dasharray="">
  <polygon class="result" fill="none" points="3515,2254 3577,2254 3578,2190 3516,2190 " stroke-width="4" />
  <text x="3515" y="2404" font-family="monospace" font-size="75">1725073110102439000120010002</text>
  <text x="3515" y="2529" font-family="monospace" font-size="75">Data Matrix, 3.48 PPM</text>
</g>
<g xml:space="preserve" stroke="#00FF00" stroke-dasharray="">
  <polygon class="result" fill="none" points="2888,1941 2958,1937 2955,1866 2885,1869 " stroke-width="4" />
  <text x="2885" y="2091" font-family="monospace" font-size="75">172406301010184500017022</text>
  <text x="2885" y="2216" font-family="monospace" font-size="75">Data Matrix, 3.95 PPM</text>
</g>
<g xml:space="preserve" stroke="#00FF00" stroke-dasharray="">
  <polygon class="result" fill="none" points="2254,1610 2324,1609 2324,1538 2254,1539 " stroke-width="4" />
  <text x="2254" y="1760" font-family="monospace" font-size="75">172406301010162500011002</text>
  <text x="2254" y="1885" font-family="monospace" font-size="75">Data Matrix, 3.95 PPM</text>
</g>
<g xml:space="preserve" stroke="#00FF00" stroke-dasharray="">
  <polygon class="result" fill="none" points="2864,2110 2935,2107 2933,2038 2863,2040 " stroke-width="4" />
  <text x="2863" y="2260" font-family="monospace" font-size="75">1725043010R21388106</text>
  <text x="2863" y="2385" font-family="monospace" font-size="75">Data Matrix, 4.37 PPM</text>
</g>
<g xml:space="preserve" stroke="#00FF00" stroke-dasharray="">
  <polygon class="result" fill="none" points="2252,1768 2325,1768 2324,1697 2251,1697 " stroke-width="4" />
  <text x="2251" y="1918" font-family="monospace" font-size="75">1725073110R25421687</text>
  <text x="2251" y="2043" font-family="monospace" font-size="75">Data Matrix, 4.50 PPM</text>
</g>
<g xml:space="preserve" stroke="#00FF00" stroke-dasharray="">
  <polygon class="result" fill="none" points="2254,1940 2326,1938 2325,1866 2253,1868 " stroke-width="4" />
  <text x="2253" y="2090" font-family="monospace" font-size="75">1725073110CX8244842</text>
  <text x="2253" y="2215" font-family="monospace" font-size="75">Data Matrix, 4.50 PPM</text>
</g>
<g xml:space="preserve" stroke="#00FF00" stroke-dasharray="">
  <polygon class="result" fill="none" points="2255,2105 2326,2104 2325,2031 2254,2033 " stroke-width="4" />
  <text x="2254" y="2255" font-family="monospace" font-size="75">1725073110CX8244841</text>
  <text x="2254" y="2380" font-family="monospace" font-size="75">Data Matrix, 4.48 PPM</text>
</g>
</svg>
